# xmcd
#
# Track frame offsets:
#	150
#	23707
#	43214
#	61483
#	79205
#	100481
#	119640
#	136536
#
# Disc length: 2063 seconds
#
# Revision: 0
# Processed by: cddbd v1.5.1PL2 Copyright (c) Steve Scherf et al.
# Submitted via: MusicManager 7.3.0.0 
#
DISCID=6b080d08
DTITLE=Joe Cocker - The best of Joe Cocker CD 1
DYEAR=1900
DGENRE=blues
TTITLE0=Unchain my heart
TTITLE1=You can leave your hat on
TTITLE2=When the night comes
TTITLE3=Up where we belong
TTITLE4=Now that the magic has gone
TTITLE5=Don't you love me anymore
TTITLE6=I can hear the river
TTITLE7=Sorry seems to be the hardest word
EXTD=
EXTT0=
EXTT1=
EXTT2=
EXTT3=
EXTT4=
EXTT5=
EXTT6=
EXTT7=
PLAYORDER=
